<svg id="icn_distance_line" xmlns="http://www.w3.org/2000/svg" xmlns:xlink="http://www.w3.org/1999/xlink" width="12" height="12" viewBox="0 0 12 12">
  <defs>
    <clipPath id="clip-path">
      <path id="Fill_1" data-name="Fill 1" d="M4.011,10.04a4.051,4.051,0,0,1-2.979-1.3A3.874,3.874,0,0,1,1.325,3.2L3.811,1A4.074,4.074,0,0,1,9.469,1.3a3.874,3.874,0,0,1-.3,5.552L6.687,9.037A4.046,4.046,0,0,1,4.011,10.04ZM6.49.5a3.545,3.545,0,0,0-2.348.882L1.656,3.571A3.375,3.375,0,0,0,1.4,8.407a3.57,3.57,0,0,0,4.957.256l2.485-2.19A3.373,3.373,0,0,0,9.1,1.634,3.55,3.55,0,0,0,6.49.5ZM4.01,8.59a2.828,2.828,0,0,1-1.89-.719l-.105-.094L2.448,7.4l.082.073a2.248,2.248,0,0,0,2.958,0L6.642,6.45l.39.423L5.882,7.887A2.831,2.831,0,0,1,4.01,8.59Zm0-1.5a1.015,1.015,0,0,1-.747-.325.958.958,0,0,1,.073-1.375L5.819,3.2a1.022,1.022,0,0,1,1.42.072A.959.959,0,0,1,7.164,4.65L4.681,6.838A1.016,1.016,0,0,1,4.009,7.091ZM6.49,3.45a.518.518,0,0,0-.342.127L3.666,5.765a.458.458,0,0,0-.036.662.521.521,0,0,0,.721.035L6.833,4.275a.468.468,0,0,0,.16-.325.46.46,0,0,0-.123-.336A.512.512,0,0,0,6.49,3.45Z" transform="translate(0 0)" fill="#2e3134"/>
    </clipPath>
  </defs>
  <g id="Icon_Metrics_icn_distance_line" data-name="Icon / Metrics / icn_distance_line">
    <rect id="Rectangle_250" data-name="Rectangle 250" width="12" height="12" fill="none"/>
    <path id="Fill_1-2" data-name="Fill 1" d="M4.011,10.04a4.051,4.051,0,0,1-2.979-1.3A3.874,3.874,0,0,1,1.325,3.2L3.811,1A4.074,4.074,0,0,1,9.469,1.3a3.874,3.874,0,0,1-.3,5.552L6.687,9.037A4.046,4.046,0,0,1,4.011,10.04ZM6.49.5a3.545,3.545,0,0,0-2.348.882L1.656,3.571A3.375,3.375,0,0,0,1.4,8.407a3.57,3.57,0,0,0,4.957.256l2.485-2.19A3.373,3.373,0,0,0,9.1,1.634,3.55,3.55,0,0,0,6.49.5ZM4.01,8.59a2.828,2.828,0,0,1-1.89-.719l-.105-.094L2.448,7.4l.082.073a2.248,2.248,0,0,0,2.958,0L6.642,6.45l.39.423L5.882,7.887A2.831,2.831,0,0,1,4.01,8.59Zm0-1.5a1.015,1.015,0,0,1-.747-.325.958.958,0,0,1,.073-1.375L5.819,3.2a1.022,1.022,0,0,1,1.42.072A.959.959,0,0,1,7.164,4.65L4.681,6.838A1.016,1.016,0,0,1,4.009,7.091ZM6.49,3.45a.518.518,0,0,0-.342.127L3.666,5.765a.458.458,0,0,0-.036.662.521.521,0,0,0,.721.035L6.833,4.275a.468.468,0,0,0,.16-.325.46.46,0,0,0-.123-.336A.512.512,0,0,0,6.49,3.45Z" transform="translate(0.5 1)" fill="#2e3134"/>
    <g id="Icon_Metrics_icn_distance_line-2" data-name="Icon / Metrics / icn_distance_line" transform="translate(0.5 1)" clip-path="url(#clip-path)">
      <g id="Select_Color" data-name="Select Color" transform="translate(-0.5 -1)">
        <rect id="Rectangle_4" data-name="Rectangle 4" width="12" height="12" fill="#2e3134"/>
      </g>
    </g>
  </g>
</svg>
